<svg xmlns="http://www.w3.org/2000/svg" viewBox="0 0 1004.85 1004.85">
  <path fill="#191a29" d="M0 0h1004.85v1004.85H0z" data-name="Ebene 1"/>
  <g fill="#dfd0bc" data-name="Ebene 4">
    <path d="m274.82 925.64 1.11-36.34 5.37.16 11.69 31.6.63-31.12 3.95.16-1.11 36.34-5.21-.16-11.85-32.55-.63 32.07-3.95-.16Zm32.55 1.11.79-27.18 3.95.16-.79 27.18-3.95-.16Zm.95-31.44.16-4.9 3.95.16-.16 4.9-3.95-.16Zm13.58 34.44 3.79.16c0 1.11.47 1.9 1.11 2.53.79.63 1.74.95 3.16.95 1.9 0 3.16-.47 4.11-1.74.79-1.26 1.26-3.16 1.42-5.85v-1.42c-.63 1.26-1.42 2.05-2.37 2.69-1.11.63-2.21.79-3.79.79-2.69-.16-4.74-1.42-6-3.79-1.26-2.53-1.9-6.16-1.74-11.22.16-4.42.95-7.74 2.37-9.95 1.42-2.21 3.63-3.32 6.48-3.16 1.42 0 2.69.47 3.63 1.11.95.63 1.74 1.74 2.05 2.84l.16-3.16 3.63.16-.79 25.91c-.16 3.32-.95 5.85-2.69 7.58-1.74 1.74-3.95 2.53-6.95 2.53-2.37 0-4.27-.79-5.69-2.05-1.42-1.26-2.05-2.84-2.05-4.74l.16-.16Zm3.63-15.96c-.16 3.79.16 6.48.95 8.22.79 1.74 2.05 2.53 3.79 2.53 1.9 0 3.16-.79 4.11-2.37.79-1.58 1.26-4.42 1.42-8.37.16-3.79-.16-6.48-.95-8.22s-2.05-2.53-3.95-2.69c-1.74 0-3 .79-3.95 2.53-.79 1.58-1.26 4.42-1.42 8.37Zm24.18 14.22 1.11-36.34 3.79.16-.32 12.17c.79-1.11 1.74-2.05 2.69-2.53 1.11-.47 2.37-.79 3.95-.79 2.05 0 3.63.63 4.9 1.74 1.11 1.11 1.74 2.69 1.58 4.58l-.63 21.65-3.79-.16.63-19.75c0-1.58-.16-2.84-.79-3.48-.63-.79-1.58-1.11-2.84-1.11-1.74 0-3 .47-4.11 1.42-1.11 1.11-1.58 2.53-1.58 4.27l-.63 18.49-3.95-.32Zm32.07-4.58c0 1.11.16 1.9.47 2.21.47.32 1.42.63 2.84.63h.79v3.32h-2.84c-1.74 0-3.16-.47-3.95-1.26s-1.26-1.9-1.26-3.32l.63-20.22-3.79-.16.16-3.16 3.79.16.16-7.27 3.63.16-.16 7.27 4.42.16-.16 3.16-4.42-.16-.32 18.49Zm28.6-7.11c.16-4.9 1.11-8.53 2.69-10.74 1.58-2.37 4.11-3.48 7.27-3.32 3.32.16 5.69 1.26 7.11 3.79 1.42 2.37 2.21 6 2.05 10.9-.16 4.9-1.11 8.53-2.69 10.74-1.58 2.21-4.11 3.32-7.43 3.16-3.32-.16-5.69-1.26-7.11-3.63-1.26-2.37-1.9-6-1.9-10.9Zm4.11.16c-.16 4.11.16 6.95.95 8.69.79 1.74 2.21 2.53 4.11 2.69 1.9 0 3.32-.79 4.27-2.37.95-1.58 1.42-4.42 1.58-8.53.16-4.11-.16-6.95-.95-8.53-.79-1.74-2.21-2.53-4.11-2.69-1.9 0-3.48.79-4.27 2.37-.95 1.42-1.42 4.27-1.58 8.37Zm25.59 14.37.79-24.02-3.79-.16.16-3.16 3.79.16.16-3.63c0-1.9.63-3.32 1.74-4.27 1.11-.95 2.69-1.26 4.9-1.26h.63c.16 0 .47.16.95.16l-.16 3.32c-.32 0-.47-.16-.79-.16h-.79c-.95 0-1.58.16-2.05.47-.47.32-.63.95-.63 1.9l-.16 3.48 4.11.16-.16 3.16-4.11-.16-.79 24.02h-3.79Zm32.87-12.64c.16-4.9 1.11-8.53 2.69-10.74 1.58-2.37 4.11-3.48 7.27-3.32 3.32.16 5.69 1.26 7.11 3.79 1.42 2.37 2.21 6 2.05 10.9-.16 4.9-1.11 8.53-2.69 10.74-1.58 2.21-4.11 3.32-7.43 3.16s-5.69-1.26-7.11-3.63c-1.42-2.21-2.05-5.85-1.9-10.9Zm3.95.16c-.16 4.11.16 6.95.95 8.69.79 1.74 2.21 2.53 4.11 2.69 1.9 0 3.32-.79 4.27-2.37.95-1.74 1.42-4.42 1.58-8.53.16-4.11-.16-6.95-.95-8.53-.79-1.74-2.21-2.53-4.11-2.69-1.9 0-3.48.79-4.27 2.37-.95 1.42-1.42 4.27-1.58 8.37Zm24.33 23.54 1.11-36.34 3.63.16-.16 3.48c.32-1.11 1.11-2.05 2.21-2.84 1.11-.79 2.37-1.11 3.79-1.11 2.84.16 5.06 1.26 6.32 3.79 1.42 2.37 2.05 6 1.9 10.74-.16 4.9-.95 8.53-2.37 10.74s-3.48 3.32-6.32 3.32c-1.26 0-2.37-.32-3.48-.95-.95-.63-1.74-1.58-2.37-2.69l-.32 12.01-3.95-.32Zm4.27-22.75c-.16 3.79.32 6.48 1.11 8.22.79 1.74 2.21 2.69 3.95 2.84 1.74 0 3-.79 3.79-2.53s1.26-4.42 1.42-8.37c.16-3.79-.16-6.48-.95-8.22-.79-1.74-2.05-2.53-3.79-2.69-1.9 0-3.32.79-4.11 2.37-.79 1.74-1.26 4.42-1.42 8.37Zm36.49 5.53 3.79.16c-.16 3.16-.95 5.69-2.37 7.27-1.42 1.58-3.63 2.37-6.16 2.37-3-.16-5.06-1.26-6.32-3.63s-1.9-5.85-1.74-10.59c.16-5.06.95-8.69 2.37-11.06 1.42-2.37 3.63-3.48 6.64-3.32 2.84.16 4.9 1.11 6.16 3.16s1.9 5.06 1.74 9.16v2.37l-13.11-.32v1.26c-.16 3.48.16 5.85.95 7.43.79 1.58 1.9 2.37 3.63 2.53 1.26 0 2.37-.47 3.16-1.74.79-1.11 1.26-2.69 1.26-4.74v-.32Zm-9.01-7.58 9.16.32v-.79c0-2.53-.16-4.42-.95-5.69-.63-1.26-1.74-1.9-3.16-2.05-1.58 0-2.84.63-3.63 1.9-.95 1.42-1.42 3.48-1.42 6.32Zm22.44 17.22.79-27.18 3.63.16-.16 3.32a6.202 6.202 0 0 1 2.84-2.84c1.11-.63 2.53-.95 4.11-.79 2.37 0 4.11.79 5.06 2.05.95 1.26 1.42 3.32 1.26 6.32l-.63 19.75-3.79-.16.63-19.91c0-1.42-.16-2.53-.79-3.32s-1.58-1.11-2.84-1.11c-1.74 0-3 .47-4.11 1.42-1.11 1.11-1.58 2.53-1.58 4.27l-.63 18.49-3.79-.47Zm44.71 1.42 1.11-36.34 3.95.16-.47 17.54 13.75-17.06 4.74.16-11.69 14.38 11.53 21.96-4.9-.16-9.32-18.49-3.95 4.9-.47 13.11-4.27-.16Zm30.65.95.79-27.18 3.63.16-.16 3.32a6.202 6.202 0 0 1 2.84-2.84c1.11-.63 2.53-.95 4.11-.79 2.37 0 4.11.79 5.06 1.9.95 1.26 1.42 3.32 1.26 6.32l-.63 19.75-3.79-.16.63-19.91c0-1.42-.16-2.53-.79-3.32s-1.58-1.11-2.84-1.11c-1.74 0-3 .47-4.11 1.42-1.11 1.11-1.58 2.53-1.58 4.27l-.63 18.49-3.79-.32Zm27.34-12.8c.16-4.9 1.11-8.53 2.69-10.74 1.58-2.37 4.11-3.48 7.27-3.32 3.32.16 5.69 1.26 7.11 3.79 1.42 2.37 2.21 6 2.05 10.9-.16 4.9-1.11 8.53-2.69 10.74-1.58 2.21-4.11 3.32-7.43 3.16-3.32-.16-5.69-1.26-7.11-3.63-1.42-2.21-2.05-5.85-1.9-10.9Zm3.95.16c-.16 4.11.16 6.95.95 8.69s2.21 2.53 4.11 2.69c1.9 0 3.32-.79 4.27-2.37.95-1.74 1.42-4.42 1.58-8.53.16-4.11-.16-6.95-.95-8.53-.79-1.74-2.21-2.53-4.11-2.69-1.9 0-3.32.79-4.27 2.37-.95 1.42-1.42 4.27-1.58 8.37Zm29.54 14.54-6.16-27.33 3.95.16 4.42 21.8 4.9-21.65 3.79.16 4.11 21.96 5.37-21.65 3.79.16-7.43 27.02-3.79-.16-4.11-21.17-4.74 21.01-4.11-.32Zm31.91.94 1.11-36.34 3.79.16-1.11 36.34-3.79-.16Zm27.02-8.37 3.79.16c-.16 3.16-.95 5.69-2.37 7.27-1.42 1.58-3.63 2.37-6.16 2.37-3-.16-5.06-1.26-6.32-3.63-1.26-2.37-1.9-5.85-1.74-10.59.16-5.06.95-8.69 2.37-11.06 1.42-2.37 3.63-3.48 6.64-3.32 2.84.16 4.9 1.11 6.16 3.16 1.26 2.05 1.9 5.06 1.74 9.16v2.37l-13.11-.32V928c-.16 3.48.16 5.85.95 7.43.79 1.58 1.9 2.37 3.63 2.53 1.26 0 2.37-.47 3.16-1.74.79-1.11 1.26-2.69 1.26-4.74v-.32Zm-9.01-7.58 9.16.32v-.79c0-2.53-.16-4.42-.95-5.69-.63-1.26-1.74-1.9-3.16-2.05-1.58 0-2.84.63-3.63 1.9-.79 1.42-1.26 3.48-1.42 6.32Zm39.82 17.69-3.63-.16.16-3.48c-.32 1.11-1.11 2.05-2.21 2.84-1.11.63-2.37.95-3.79.95-2.84-.16-4.9-1.42-6.32-4.11-1.42-2.53-2.05-6.32-1.9-11.22.16-4.27.95-7.43 2.53-9.8s3.63-3.48 6.32-3.32c1.42 0 2.69.47 3.79 1.11 1.11.63 1.74 1.58 2.05 2.53l.32-12.01 3.79.16-1.11 36.5Zm-3.16-13.9c.16-3.95-.16-6.79-.95-8.37-.79-1.58-2.05-2.37-3.95-2.53-1.74 0-3.16.79-3.95 2.37-.95 1.58-1.42 4.27-1.58 7.74-.16 3.95.16 6.79.95 8.53.79 1.74 2.05 2.69 3.79 2.84 1.9 0 3.32-.79 4.11-2.37.95-1.42 1.42-4.27 1.58-8.22Zm13.75 16.75 3.79.16c0 1.11.47 1.9 1.11 2.53.79.63 1.74.95 3.16.95 1.9 0 3.16-.47 4.11-1.74.79-1.26 1.26-3.16 1.42-5.85v-1.42c-.63 1.26-1.42 2.05-2.37 2.69-1.11.63-2.21.79-3.79.79-2.69-.16-4.74-1.42-6-3.79-1.26-2.53-1.9-6.16-1.74-11.22.16-4.42.95-7.74 2.37-9.95 1.42-2.21 3.63-3.32 6.48-3.16 1.42 0 2.69.47 3.63 1.11.95.63 1.74 1.74 2.05 2.84l.16-3.16 3.63.16-.79 25.91c-.16 3.32-.95 5.85-2.69 7.58-1.74 1.74-3.95 2.53-6.95 2.53-2.37 0-4.27-.79-5.69-2.05s-2.21-2.84-2.05-4.74l.16-.16Zm3.63-15.96c-.16 3.79.16 6.48.95 8.22.79 1.74 2.05 2.53 3.79 2.53 1.9 0 3.16-.79 4.11-2.37.79-1.58 1.26-4.42 1.42-8.37.16-3.79-.16-6.48-.95-8.22s-2.05-2.53-3.95-2.69c-1.74 0-3 .79-3.95 2.53-.79 1.74-1.26 4.58-1.42 8.37Zm36.81 5.53 3.79.16c-.16 3.16-.95 5.69-2.37 7.27-1.42 1.58-3.63 2.37-6.16 2.37-3-.16-5.06-1.26-6.32-3.63s-1.9-5.85-1.74-10.59c.16-5.06.95-8.69 2.37-11.06 1.42-2.37 3.63-3.48 6.64-3.32 2.84.16 4.9 1.11 6.16 3.16 1.26 2.05 1.9 5.06 1.74 9.16v2.37l-13.11-.32v1.26c-.16 3.48.16 5.85.95 7.43.79 1.58 1.9 2.37 3.63 2.53 1.26 0 2.37-.47 3.16-1.74.79-1.26 1.26-2.69 1.26-4.74v-.32Zm-9.01-7.58 9.16.32v-.79c0-2.53-.16-4.42-.95-5.69-.63-1.26-1.74-1.9-3.16-2.05-1.58 0-2.84.63-3.63 1.9-.95 1.42-1.42 3.48-1.42 6.32Zm-551.71-86.27v-93.71c-22.8 3.55-45.61 7.11-68.41 10.66v84.58l68.41-1.53Zm214.71-127.18V835.1c49.03-1.1 98.06-2.21 147.09-3.31V689.74c-49.03 7.64-98.06 15.28-147.09 22.93Zm109.29 108.42c-24.71.99-49.41 1.98-74.12 2.96 0-5.77.01-8.64.02-14.39 4.81-4.39 9.7-8.84 14.67-13.36 4.97-4.52 9.68-9.06 14.08-13.6 9.3-9.5 15.89-17.21 19.46-22.83 3.57-5.61 5.39-11.52 5.4-17.67.01-5.62-1.93-9.78-5.76-12.45s-9.14-3.54-15.81-2.68c-4.43.57-9.17 1.94-14.2 4.08-5.03 2.14-9.87 5.02-14.52 8.62-.28.03-.41.05-.69.08 0-5.81.01-8.71.02-14.52 3.27-2.06 7.66-4.13 13.26-6.27 5.6-2.14 11.11-3.6 16.52-4.36 11.16-1.57 20.24-.2 26.88 4.29 6.64 4.49 10.05 11.42 10.02 20.7-.01 4.18-.58 8.12-1.7 11.84-1.12 3.71-2.79 7.28-4.94 10.7a82.89 82.89 0 0 1-7.04 9.52c-2.67 3.14-5.9 6.61-9.65 10.4-5.35 5.44-10.8 10.67-16.32 15.68-5.53 5.01-10.61 9.56-15.27 13.71 19.91-1.02 39.82-2.04 59.73-3.07-.01 5.04-.02 7.56-.03 12.62Zm-159.94-68.83c-1.52-2.99-3.57-5.13-6.16-6.41-2.59-1.27-5.9-1.65-9.89-1.13-3.95.51-7.17 1.71-9.71 3.6-2.53 1.89-4.52 4.51-5.99 7.84-1.38 3.13-2.33 7.1-2.84 11.89-.51 4.79-.76 10.01-.77 15.66 0 6.21.21 11.37.66 15.51.44 4.14 1.41 7.82 2.85 11.03 1.35 3 3.24 5.28 5.72 6.78 2.48 1.5 5.79 2.14 9.98 1.91 3.93-.22 7.25-1.19 9.9-2.93 2.65-1.74 4.72-4.28 6.2-7.63 1.52-3.43 2.56-7.43 3.12-11.99.55-4.56.83-10.02.85-16.4.02-6.3-.25-11.73-.78-16.3-.54-4.57-1.6-8.4-3.14-11.43Z"/>
    <path d="M954.83 697.5c0-3.79-1.26-9.64-2.84-12.96l-39.66-85c-2.05-4.58-7.58-7.27-12.48-6.32l-68.55 13.1c12.11-38.86 18.26-79.15 18.27-119.8 0-22.84-2.34-68.68-18-119.02-1.9-6.12-3.99-12.17-6.19-18.19a5.16 5.16 0 0 0-.39-1.08c-8.57-23.27-19.28-45.74-32.06-67.07l27.56-.07c2.79 0 5.04-2.27 5.04-5.06 0-2.78-2.27-5.04-5.05-5.04h-.01l-21.61.05c2.59-.66 4.93-1.74 7.07-3.65 5.36-4.79 8.26-13.7 5.07-17.93-.12-.16-.29-.27-.43-.41.19-.03.4-.06.6-.1-2.96-13.2-2.75-23.61-1.98-30.76.84-7.82 2.52-13.32 1.89-22.53-.55-7.96-2.53-14.37-4.12-18.55-8.39 2.63-16.77 5.25-25.16 7.88-.62 2.58-1.22 5.26-1.8 8-1.53.68-3.14 1.51-4.82 2.6a35.798 35.798 0 0 0-7.27 6.29c-4.93-.96-8.87-2.12-11.62-3.04-6.86-2.28-10.16-4.29-12.86-2.62-.06.04-.12.09-.18.13-27-16.07-54.96-31.13-83.2-44.78-31.6-15.28-64.33-29.19-97.28-41.34-1.57-.58-3.31.22-3.89 1.79-.41 1.12-.11 2.32.66 3.13a1475.84 1475.84 0 0 0-3.39 72.48c-1.01 45.89.59 71.09 1.89 91.34 1.35 21.25 2.42 38.03-.3 68.88-.06.65-.12 1.26-.18 1.9-7.53-.39-13.03-1.59-18.72-2.84-8.55-1.87-18.24-4-35.57-3.6-15.51.35-23.28 2.35-31.51 4.47-7.62 1.96-15.49 3.99-31 5.04-15.81 1.07-23.91.03-34.17-1.3-8.58-1.11-19.26-2.48-37.14-2.93-19.36-.49-28.6.53-39.32 1.72-9.54 1.05-20.36 2.25-41.1 2.5-23.94.29-34.78-.96-44.35-2.07-9.8-1.13-18.25-2.12-37.14-1.09-16.26.88-27.68 2.56-38.72 4.19-13.84 2.04-26.92 3.97-48.69 4.24-13.66.17-27.38-.39-40.9-1.61 8.37-26.63 19.29-52.77 32.71-77.98.83-1.56.78-3.45-.13-4.97s-2.55-2.45-4.32-2.45L72.71 271c-2.78 0-5.04 2.25-5.05 5.04 0 2.79 2.25 5.05 5.04 5.06l26.48.05c-33.19 65.06-50.43 135.89-49.92 205.38.3 40.41 6.68 82.65 17.99 118.96 15.12 48.55 39.17 93.32 71.47 133.15l-67.38 12.87c-5.06.95-8.85 5.69-8.85 10.74l.16 106.01c0 5.21 4.27 9.8 9.64 9.95l830.89 27.65h1.11c3.63 0 8.53-.47 11.85-1.26l30.81-7.11c4.9-1.11 8.69-6 8.69-11.06l-.79-188.96ZM733.12 197.42c3.52 2.06 7.03 4.14 10.53 6.24.49.29 1.02.43 1.56.43.35 0 .69-.08 1.01-.2.43.02.88.03 1.35-.02.5.52 2.29 2.34 4.98 4.29-1.68-.43-3.18-.85-4.41-1.23-4.38-1.35-7.32-2.61-9.57-2.92l-3.73-1.84c.13-.79.09-1.57-.22-2.2-.28-.56-.92-.99-2.04-1.55l.55-1.01Zm-170.92-9.63c.52-23.46 1.62-47 3.23-70.06 31.15 11.66 62.07 24.87 91.97 39.32 24.43 11.81 48.65 24.69 72.22 38.35l-.72 1.32c-.9-.36-1.56-.53-2.12-.41-2.42.53-4.28 4.24-3.29 6.32.3.64 1.39 1.19 3.54 2.27 2.36 1.19 3.56 1.78 4.3 1.64.56-.1 1.09-.41 1.57-.83l.83.41c-.6.94-.91 2.05-.64 3.04.52 1.91 3.15 3.36 6.44 2.97 10.33 6.84 19.06 8.62 24.34 9.13 3.62.35 7.24.27 11.15.18h.28c-1.16 9.78-1.81 18.98-2.07 27.44 1.66.31 3.44.59 5.3.84-8.46.99-18.52 2.04-30.16 3.02.02.52.04 1.04.07 1.56-1.97 1.01-5.25 3.08-7.38 6.92-3.51 6.31-2.48 14.72 2.49 21.58 3.36 7.07 6.71 14.14 10.07 21.22-2.13 1.65-4.92 4.34-6.52 8.16-1.16 2.77-.86 4.16-.59 4.89.5 1.34 1.53 2.14 2.15 2.54 7.24-4.65 14.47-9.29 21.71-13.94-3.67-10.83-7.34-21.67-11.01-32.5 7.72-.02 14.71-.2 20.89-.46-.29.31-.55.64-.75 1.02-.89 1.61-.83 3.57.15 5.13a388.906 388.906 0 0 1 33.11 65.59c-16.83-2-33.85-3.08-50.72-3.22-16.24-.13-26.21.63-35.84 1.37-10.36.8-20.16 1.55-36.72.89-15.91-.63-24.55-2.02-31.5-3.14-8.28-1.33-14.82-2.38-28.22-1.6-15.86.93-23.91 3.42-31.69 5.82-7.21 2.23-14.02 4.33-27.42 5.12-2.53.15-4.84.22-7.01.24.05-.5.09-.98.14-1.49 2.77-31.3 1.68-48.29.31-69.79-1.28-20.13-2.88-45.19-1.87-90.82ZM148.22 734.38c-32.34-39.34-56.34-83.71-71.34-131.87-11.02-35.38-17.24-76.59-17.53-116.03-.29-40.04 5.47-80.55 16.9-120.11 12.84 1.22 25.88 1.86 38.88 1.86 1.71 0 3.43 0 5.14-.03 22.44-.28 35.84-2.26 50.03-4.35 10.81-1.6 21.99-3.24 37.79-4.1 18.02-.98 25.71-.09 35.43 1.04 9.87 1.14 21.07 2.43 45.64 2.14 21.23-.26 32.31-1.49 42.08-2.57 10.35-1.14 19.29-2.13 37.95-1.66 17.36.44 27.32 1.72 36.11 2.86 10.81 1.39 19.34 2.49 36.14 1.36 16.44-1.11 25.16-3.36 32.84-5.34 7.98-2.06 14.87-3.83 29.21-4.15 16.14-.37 24.8 1.53 33.19 3.37 5.81 1.27 11.76 2.56 19.87 3.03-.99 9.09-2.07 17.12-3.12 24.95-2.93 21.75-5.47 40.53-4.47 72.02a477.25 477.25 0 0 0 4.69 53.22l-.4 11.54c-.07.55-.09 1.1-.07 1.65-.2 1.21-.77 2.31-1.66 3.15-.88.83-1.98 1.3-2.86 1.19-.83-.09-1.77-.72-2.44-1.64-.92-1.25-1.25-2.88-.93-4.47.34-1.64-.72-3.24-2.36-3.58a3.05 3.05 0 0 0-3.58 2.36c-.66 3.25.05 6.62 1.97 9.25 1.69 2.32 4.12 3.82 6.67 4.1.3.03.61.05.91.05 2.39 0 4.81-1.01 6.76-2.85.13-.12.24-.26.36-.38 1.96 2.16 4.65 3.43 7.45 3.48h.16c2.76 0 5.48-1.2 7.48-3.3 2.12-2.22 3.22-5.26 3.02-8.32-.11-1.67-1.49-2.93-3.22-2.83a3.039 3.039 0 0 0-2.83 3.22c.09 1.4-.39 2.73-1.36 3.75-.86.9-1.99 1.42-3.1 1.42h-.06c-1.17-.02-2.33-.61-3.18-1.61a5.077 5.077 0 0 1-1.15-2.9c.04-.44.05-.89.04-1.34v-.04c.05-3.99.11-7.98.16-11.96-2.98-21.4-4.08-39.57-4.44-53.36-.25-9.39-.44-19.38.33-32.78.8-13.84 2.37-25.52 4.09-38.23 1.08-8 2.18-16.22 3.19-25.58 2.64 0 5.49-.07 8.61-.26 14.62-.87 22.34-3.25 29.81-5.56 7.54-2.33 14.66-4.53 29.3-5.39 12.29-.73 18.05.21 26.02 1.49 7.21 1.16 16.19 2.61 32.7 3.26 17.16.68 27.23-.09 37.89-.91 9.43-.72 19.22-1.46 34.99-1.34 18.24.15 36.65 1.44 54.79 3.8 1.83 5.1 3.58 10.22 5.19 15.39 15.26 49.06 17.54 93.75 17.54 116.02 0 40.52-6.26 80.67-18.59 119.34-.27.83-.28 1.68-.13 2.48l-74.11 14.16c10.03-4.93 20.3-12.35 28.46-23.58 8.62-11.85 12.12-24.19 13.44-30.49 3.66-17.45.58-32.61-1.08-40.75-1.51-7.44-3.24-12.4-4.63-16.38-1.8-5.16-2.99-8.58-3.09-14.87-.12-7.72 1.53-15.53 4.92-23.23a5.063 5.063 0 0 0-2.59-6.66 5.063 5.063 0 0 0-6.66 2.59c-3.98 9.04-5.92 18.27-5.77 27.46.13 7.92 1.76 12.6 3.65 18.03 1.36 3.89 2.89 8.3 4.27 15.07 1.51 7.43 4.32 21.25 1.09 36.66-.93 4.44-3.93 15.91-11.72 26.62-9.16 12.59-21.74 19.73-32.74 23.77 9.14-8.76 18.06-20.34 24.06-35.37 7.67-19.23 7.8-36.86 6.56-48.27-1.93-17.76-8.35-30.4-14.56-42.63-6.43-12.65-12.5-24.6-14.05-42.25-1.01-11.5.13-23.28 3.37-35.02.74-2.69-.83-5.47-3.52-6.21-2.69-.74-5.47.83-6.21 3.52-3.57 12.91-4.81 25.89-3.7 38.6 1.72 19.6 8.52 32.99 15.1 45.94 6.07 11.94 11.8 23.22 13.53 39.14 1.12 10.27 1 26.14-5.9 43.44-6.07 15.22-15.52 26.55-24.85 34.75a235.2 235.2 0 0 0 8.57-32.18l.83-4.3c2.89-14.81 6.17-31.59 2.7-50.43-2.93-15.92-8.64-26.43-14.15-36.6-4.62-8.52-8.99-16.57-11.99-27.89-5.26-19.83-3.92-42.08 3.98-66.11.87-2.65-.57-5.5-3.22-6.37-2.64-.87-5.5.57-6.37 3.22-8.52 25.92-9.92 50.09-4.15 71.85 3.31 12.49 8.18 21.46 12.88 30.12 5.38 9.91 10.46 19.26 13.1 33.61 3.12 16.96.17 32.07-2.68 46.67l-.84 4.34c-2.48 13-6.15 25.8-10.9 38.2-4.97-7.57-8.5-15.55-10.53-23.84-2.65-10.82-.98-17.89.8-25.38 1.87-7.88 3.8-16.02.47-27.54-4.46-15.41-12.28-25.76-19.18-34.9-7.37-9.76-13.74-18.18-15.8-31.29-2.25-14.28 1.59-30.03 11.4-46.81 1.41-2.41.6-5.5-1.81-6.91-2.41-1.41-5.5-.6-6.91 1.81-11.01 18.84-15.27 36.83-12.65 53.47 2.46 15.61 10.21 25.88 17.72 35.81 6.68 8.85 13.59 17.99 17.53 31.62 2.6 8.97 1.12 15.2-.59 22.4-1.88 7.94-4.01 16.94-.78 30.11 3.01 12.29 8.89 23.93 17.47 34.63l-426.23 81.44c.03-.08.05-.16.07-.24.01-.04.04-.07.05-.1 8.05-30.54 21.52-57.5 40.05-80.13 11.94-14.58 23.23-24 33.19-32.31 13.26-11.06 24.71-20.61 32.68-37.98 11.93-26 10.59-58.64-3.98-97.03a4.046 4.046 0 0 0-5.21-2.34 4.042 4.042 0 0 0-2.34 5.21c13.77 36.29 15.18 66.83 4.19 90.79-6.91 15.05-16.66 23.56-28.92 33.81-3.95-15.35-10.84-28.4-20.55-38.87-8.02-8.65-15.56-12.93-22.22-16.7-5.91-3.35-11.01-6.24-15.62-11.63-11.47-13.41-13.73-35.85-6.72-66.67.5-2.18-.87-4.34-3.04-4.83-2.16-.5-4.34.87-4.83 3.04-7.61 33.45-4.76 58.25 8.46 73.71 5.53 6.46 11.47 9.84 17.77 13.41 6.44 3.66 13.11 7.44 20.28 15.17 9.56 10.31 16.1 23.52 19.51 39.21-8.86 7.51-18.6 16.31-28.91 28.9-1.91 2.34-3.76 4.73-5.57 7.16-2.19-10.81-6.68-19.52-13.44-25.93-6.15-5.83-12.53-8.19-18.15-10.28-5.42-2.01-10.1-3.75-13.73-8.28-5.73-7.15-6.74-18.75-3.02-34.49a4.04 4.04 0 0 0-3-4.86c-2.17-.5-4.35.83-4.86 3-4.33 18.28-2.79 32.21 4.57 41.4 5.03 6.28 11.23 8.58 17.22 10.8 5.37 2 10.45 3.88 15.4 8.58 7.07 6.69 11.14 16.72 12.19 29.76-11.51 17.46-20.52 36.92-26.9 58.14-12.9-17.33-27.97-30.51-44.89-39.26-17.67-12.05-29.22-26-34.33-41.46-2.29-6.92-2.98-13.08-3.65-19.04-.17-1.52-.34-3.03-.53-4.53 8.26-7.44 20.97-22.11 25.18-44.61 4.05-21.6-2.02-39.32-5.99-47.96a4.039 4.039 0 0 0-5.36-1.98 4.039 4.039 0 0 0-1.98 5.36c3.57 7.77 9.03 23.7 5.39 43.1-3.21 17.14-11.92 29.22-19.02 36.57-1.15-4.31-2.9-8.7-5.85-13.34-6.88-10.8-17.76-19.01-32.36-24.39-2.09-.77-4.42.3-5.19 2.39s.3 4.42 2.39 5.19c12.9 4.75 22.44 11.87 28.34 21.14 5.18 8.13 6 15.46 6.95 23.96.68 6.07 1.46 12.96 4 20.67 3.49 10.56 9.61 20.43 18.25 29.5-.62-.2-1.25-.39-1.85-.59-10.46-3.29-19.5-6.14-28.89-14.26-11.29-9.77-19.15-23.74-23.38-41.51a4.019 4.019 0 0 0-4.86-2.99 4.026 4.026 0 0 0-2.99 4.86c4.62 19.46 13.35 34.85 25.95 45.75 10.65 9.22 20.9 12.45 31.75 15.86 7.45 2.34 15.16 4.77 24.06 9.34 18.01 9.25 33.85 23.95 47.08 43.69.03.05.08.08.11.12.07.1.14.21.22.3l-126.59 24.19c-.15-.8-.48-1.59-1.04-2.26ZM89.13 871.43c-5.46-.2-10.92-.4-16.38-.61-1.26 0-2.53-1.26-2.53-2.53l-.16-106.01c6.36 5.21 12.71 10.42 19.07 15.63v93.51Zm743.73 24.67-108.38-66.2 112.04-2.55V658.1l-196.7 30.66v142.95l76.91-1.65 107.59 65.73-446.81-14.85 20.38-16.75c2.21-1.74 6.48-3.16 9.32-3.16l7.9.16c3.95.16 9.01-2.21 11.69-5.06l17.7-20.07c11.84-.27 23.68-.54 35.52-.82V713.66c-36.85 5.74-73.69 11.49-110.54 17.23v106.8l69.17-1.63-15.01 17.22c-1.74 2.05-5.69 3.63-8.37 3.63l-7.9-.16c-3.79 0-9.16 1.74-12.01 4.11l-24.02 19.75-112.97-3.79 22.28-14.85c2.53-1.58 6.16-2.53 7.74-2.21 2.84.63 7.58-.79 10.74-3l25.44-18.17 38.55-.75V731.89l-86.84 13.53v94.34c13.67-.34 27.35-.67 41.02-1.01l-20.38 14.54c-2.37 1.74-6 2.69-7.43 2.37-2.84-.63-7.58.63-10.9 2.84l-27.33 18.01-150.41-5.06 71.1-29.7 26.64-.27v-83.95c-18.21 2.84-36.42 5.68-54.63 8.51v76.65l16.46-.63-66.52 27.97-.16-26.23 45.5-1.26c.05-25.33.11-50.66.16-76l-48.35 7.74-18.64-15.48c.16 0 .16-.16.32-.16l827.89-158.31-30.02 52.45c-9.25 1.44-18.5 2.88-27.75 4.33V827.2l28.23-.63.63 70.78-38.87-1.26Zm-59.54-134.19c-1.91-2.81-4.58-4.9-7.88-6.31-3.32-1.42-7.34-2.29-11.98-2.52-4.64-.23-9.6-.1-14.84.36-3.82.34-5.72.51-9.48.84 0-5.43.01-8.14.02-13.55 2.93-.29 4.4-.44 7.36-.74 10.72-1.07 19.55-3.7 26.22-7.94 6.66-4.24 10.07-9.84 10.08-16.71 0-3.04-.86-5.6-2.57-7.65-1.71-2.06-4.11-3.66-7.11-4.68-3.12-1.06-6.53-1.61-10.07-1.7-3.55-.09-7.53.16-11.93.74-6.74.89-13.8 2.73-21.14 5.51s-14.13 6.19-20.43 10.24c-.4.05-.6.07-.99.12l.05-16.55c4.7-2.49 11.01-5.07 19.1-7.8 8.09-2.73 16.08-4.67 23.96-5.8 7.74-1.11 14.7-1.55 20.8-1.3 6.09.25 11.72 1.25 16.75 3.05 5.42 1.94 9.62 4.7 12.47 8.21 2.85 3.5 4.3 7.88 4.3 13.09 0 7.11-3.42 13.72-10.1 19.67-6.68 5.95-14.47 9.99-23.23 12.17v1.17c3.54.11 7.61.66 12.27 1.67 4.66 1.01 8.67 2.45 11.95 4.33 3.67 2.11 6.74 4.96 9.15 8.5s3.63 8.29 3.64 14.23c0 5.89-1.45 11.39-4.32 16.45-2.87 5.06-6.9 9.52-12 13.34-5.7 4.27-12.38 7.48-19.88 9.66-7.51 2.18-15.6 3.41-24.2 3.73-8.81.33-17.29-.17-25.45-1.44-8.17-1.27-14.71-2.72-19.77-4.36l.05-16.61c.59-.03.89-.05 1.48-.09 5.6 2.64 12.27 4.77 20.12 6.36 7.84 1.59 15.58 2.23 23.17 1.85 4.47-.22 9.28-1.03 14.44-2.46s9.43-3.38 12.66-5.87c3.41-2.63 5.98-5.55 7.67-8.65 1.69-3.1 2.54-6.96 2.54-11.55 0-4.53-.96-8.21-2.88-11.02Zm-353.76 67.04c-11.22.51-19.07-2.95-23.99-10.17-4.93-7.22-7.34-18.45-7.34-33.95s2.44-27.41 7.45-35.56c5.01-8.15 12.86-13.07 24-14.62 11.26-1.57 19.84 1.21 25.27 8.54 5.43 7.33 8.2 19.24 8.15 35.57-.05 16.83-2.91 29.34-8.45 37.41-5.54 8.07-14.04 12.28-25.09 12.78Zm-92.9-68.61c-2.52-2.12-6.02-2.89-10.43-2.34-2.93.37-6.07 1.34-9.41 2.91s-6.56 3.72-9.67 6.44l-.46.05c0-4.51 0-6.75.01-11.26 2.18-1.54 5.11-3.07 8.83-4.62 3.72-1.55 7.37-2.58 10.95-3.07 7.38-1 13.34.22 17.7 3.79 4.36 3.57 6.58 8.95 6.56 16.08 0 3.21-.38 6.23-1.12 9.06-.74 2.84-1.83 5.56-3.24 8.16a61.863 61.863 0 0 1-4.62 7.24c-1.76 2.38-3.88 5.02-6.35 7.89-3.52 4.14-7.12 8.12-10.77 11.93-3.66 3.82-7.03 7.3-10.13 10.47l39.33-1.91c0 3.87-.01 5.8-.02 9.68-20.73.79-30.45 1.14-48.92 1.84 0-4.48 0-6.7.01-11.17 3.21-3.37 6.47-6.77 9.78-10.23 3.3-3.46 6.42-6.91 9.34-10.37 6.15-7.24 10.5-13.1 12.85-17.37 2.35-4.27 3.54-8.8 3.55-13.53 0-4.32-1.26-7.56-3.78-9.68Zm576.67 138.13c-9.11-.32-18.22-.63-27.33-.95V651.96c9.16-16 18.33-32 27.49-48l3.79 294.19c-1.32.11-2.63.21-3.95.32Zm41.87-8.22-30.81 7.11c-.79.16-1.74.32-2.69.47l-3.79-290.71 37.6 80.42c1.11 2.53 2.21 7.11 2.21 9.95l.63 188.8c-.16 1.74-1.58 3.48-3.16 3.95Z"/>
    <path d="M780.84 155.73c-.51.8-.38 1.82-1.88 4.42-1.18 2.06-2.17 3-1.84 4.2.26.94 1.02.94 1.74 2 1.2 1.76.33 3.54.59 4.9.75 3.91 11.79 8.78 18.74 3.7 2.25-1.65 4.27-4.5 4.65-7.64 8.36 4.37 11.25 5.61 12.36 4.43.88-.94.81-3.62-4.55-11.82.47-.65 5.44-7.73 2.58-13.83-1.38-2.95-4.02-4.42-7.15-6.16-3.35-1.87-7.07-3.94-11.59-3.21-6.9 1.12-10.38 7.92-10.85 8.88-4.11-.3-8.22-.59-12.33-.89-.91.29-2.21.85-2.47 1.87-.5 2.03 3.46 4.57 11.99 9.14ZM273.52 54.27c-2.66-.32-5.35-.5-8.09-.5-37.5 0-67.9 30.4-67.9 67.9s30.4 67.9 67.9 67.9c2.89 0 5.74-.2 8.54-.55-27.86-11.11-46.13-38.24-45.89-68.06.24-29.22 18.22-55.63 45.44-66.69Z"/>
    <circle cx="394.11" cy="259.22" r="2.93"/>
    <circle cx="496.37" cy="63.18" r="2.93"/>
    <circle cx="586.96" cy="267.7" r="2.93"/>
    <circle cx="656.79" cy="95.87" r="2.93"/>
    <circle cx="733.58" cy="238.04" r="2.93"/>
    <circle cx="616.5" cy="244.24" r="2.93"/>
    <circle cx="491.92" cy="190.91" r="2.93"/>
    <circle cx="669.72" cy="212.31" r="2.93"/>
    <circle cx="724.4" cy="154.5" r="2.93"/>
    <circle cx="188.45" cy="225.88" r="2.93"/>
    <circle cx="317.7" cy="277.96" r="2.93"/>
    <circle cx="185.3" cy="290.51" r="2.93"/>
    <circle cx="193.12" cy="320.92" r="2.93"/>
    <circle cx="339.75" cy="273.4" r="2.93"/>
    <circle cx="481.16" cy="256.67" r="2.93"/>
    <circle cx="522.22" cy="267.7" r="2.93"/>
    <circle cx="378.14" cy="104.5" r="2.93"/>
    <circle cx="422.73" cy="263.51" r="2.93"/>
    <circle cx="311.24" cy="244.51" r="2.93"/>
    <circle cx="273.87" cy="300.77" r="2.93"/>
    <circle cx="291.2" cy="300.39" r="2.93"/>
    <circle cx="221.9" cy="244.02" r="2.93"/>
    <circle cx="125.23" cy="244.51" r="2.93"/>
    <circle cx="367.88" cy="78.76" r="2.93"/>
    <circle cx="451.24" cy="130.08" r="2.93"/>
    <circle cx="340.51" cy="188.63" r="2.93"/>
    <circle cx="187.69" cy="197.64" r="2.93"/>
    <circle cx="593.69" cy="315.48" r="2.93"/>
    <circle cx="609.65" cy="296.59" r="2.93"/>
    <path d="m462.18 507.21-3.46 2.23-1.53-2.49 5.28-3.51h3.05v15.99h-3.34v-12.21Zm-.4-19.96-3.46 2.23-1.53-2.49 5.28-3.51h3.05v15.99h-3.34v-12.21Zm-12.55 10.84-3.46 2.23-1.53-2.49 5.28-3.51h3.05v15.99h-3.34V498.1Zm-11.4 9.41-3.46 2.23-1.53-2.49 5.28-3.51h3.05v15.99h-3.34v-12.21Zm.28-19.96-3.46 2.23-1.53-2.49 5.28-3.51h3.05v15.99h-3.34v-12.21ZM472 515.51c0-6.05 2.23-8.38 6.2-8.38s6.2 2.33 6.2 8.38-2.23 8.19-6.2 8.19-6.2-2.13-6.2-8.19Zm8.96 0c0-4.17-.8-5.47-2.74-5.47s-2.78 1.31-2.78 5.47c0 3.92.85 5.28 2.78 5.28s2.74-1.36 2.74-5.28Zm-8.54-29.27c0-6.05 2.23-8.38 6.2-8.38s6.2 2.33 6.2 8.38-2.23 8.19-6.2 8.19-6.2-2.13-6.2-8.19Zm8.96 0c0-4.17-.8-5.47-2.74-5.47s-2.78 1.31-2.78 5.47c0 3.92.85 5.28 2.78 5.28s2.74-1.36 2.74-5.28Zm11.97 21.1-3.46 2.23-1.53-2.49 5.28-3.51h3.05v15.99h-3.34v-12.21Zm-.1-19.8-3.46 2.23-1.53-2.49 5.28-3.51h3.05v15.99h-3.34v-12.21Zm5.95 13.43c0-6.05 2.23-8.38 6.2-8.38s6.2 2.33 6.2 8.38-2.23 8.19-6.2 8.19-6.2-2.13-6.2-8.19Zm8.96 0c0-4.17-.8-5.47-2.74-5.47s-2.78 1.31-2.78 5.47c0 3.92.85 5.28 2.78 5.28s2.74-1.36 2.74-5.28Zm-356.14-70-2.21 1.42-.97-1.59 3.37-2.24h1.95v10.21h-2.14v-7.8Zm-.25-12.75-2.21 1.42-.97-1.59 3.37-2.24h1.95v10.21h-2.14v-7.8Zm-8.02 6.92-2.21 1.42-.97-1.59 3.37-2.24h1.95v10.21h-2.14v-7.8Zm-7.28 6.01-2.21 1.42-.97-1.59 3.37-2.24h1.95v10.21h-2.14v-7.8Zm.18-12.75-2.21 1.42-.97-1.59 3.37-2.24h1.95v10.21h-2.14v-7.8Zm21.65 17.87c0-3.87 1.42-5.35 3.96-5.35s3.96 1.49 3.96 5.35-1.42 5.23-3.96 5.23-3.96-1.36-3.96-5.23Zm5.72 0c0-2.66-.51-3.5-1.75-3.5s-1.78.84-1.78 3.5c0 2.51.54 3.37 1.78 3.37s1.75-.87 1.75-3.37Zm-5.46-18.69c0-3.87 1.42-5.35 3.96-5.35s3.96 1.49 3.96 5.35-1.42 5.23-3.96 5.23-3.96-1.36-3.96-5.23Zm5.72 0c0-2.66-.51-3.5-1.75-3.5s-1.78.84-1.78 3.5c0 2.51.54 3.37 1.78 3.37s1.75-.87 1.75-3.37Zm7.65 13.47-2.21 1.42-.97-1.59 3.37-2.24h1.95v10.21h-2.14v-7.8Zm-.06-12.65-2.21 1.42-.97-1.59 3.37-2.24h1.95v10.21h-2.14v-7.8Zm3.8 8.59c0-3.87 1.42-5.35 3.96-5.35s3.96 1.49 3.96 5.35-1.42 5.23-3.96 5.23-3.96-1.36-3.96-5.23Zm5.72 0c0-2.66-.51-3.5-1.75-3.5s-1.78.84-1.78 3.5c0 2.51.54 3.37 1.78 3.37s1.75-.87 1.75-3.37Zm455.73-4.37-2.71 1.75-1.2-1.95 4.13-2.75h2.39v12.52h-2.62v-9.56Zm-.31-15.62-2.71 1.75-1.2-1.95 4.13-2.75h2.39v12.52h-2.62v-9.56Zm-9.82 8.48-2.71 1.75-1.2-1.95 4.13-2.75h2.39v12.52h-2.62v-9.56Zm-8.94 7.37-2.71 1.75-1.2-1.95 4.13-2.75h2.39v12.52h-2.62v-9.56Zm.23-15.63-2.71 1.75-1.2-1.95 4.13-2.75h2.39v12.52h-2.62v-9.56Zm-16.67 21.91c0-4.74 1.75-6.56 4.86-6.56s4.86 1.82 4.86 6.56-1.75 6.41-4.86 6.41-4.86-1.67-4.86-6.41Zm7.02 0c0-3.26-.63-4.29-2.14-4.29s-2.18 1.02-2.18 4.29c0 3.07.66 4.14 2.18 4.14s2.14-1.06 2.14-4.14Zm-6.69-22.93c0-4.74 1.75-6.56 4.86-6.56s4.86 1.82 4.86 6.56-1.75 6.41-4.86 6.41-4.86-1.67-4.86-6.41Zm7.02 0c0-3.26-.63-4.29-2.14-4.29s-2.18 1.02-2.18 4.29c0 3.07.66 4.14 2.18 4.14s2.14-1.06 2.14-4.14Zm-12.8 16.53-2.71 1.75-1.2-1.95 4.13-2.75h2.39v12.52h-2.62v-9.56Zm-.08-15.51-2.71 1.75-1.2-1.95 4.13-2.75h2.39v12.52h-2.62v-9.56Zm-14.57 10.52c0-4.74 1.75-6.56 4.86-6.56s4.86 1.82 4.86 6.56-1.75 6.41-4.86 6.41-4.86-1.67-4.86-6.41Zm7.02 0c0-3.26-.63-4.29-2.14-4.29s-2.18 1.02-2.18 4.29c0 3.07.66 4.14 2.18 4.14s2.14-1.06 2.14-4.14ZM454.06 626.28l-2.17 1.4-.96-1.56 3.31-2.2h1.91v10.03h-2.1v-7.66Zm-.25-12.52-2.17 1.4-.96-1.56 3.31-2.2h1.91v10.03h-2.1v-7.66Zm-7.87 6.8-2.17 1.4-.96-1.56 3.31-2.2h1.91v10.03h-2.1v-7.66Zm-7.15 5.9-2.17 1.4-.96-1.56 3.31-2.2h1.91v10.03h-2.1v-7.66Zm.17-12.52-2.17 1.4-.96-1.56 3.31-2.2h1.91v10.03h-2.1v-7.66Zm-13.34 17.55c0-3.8 1.4-5.26 3.89-5.26s3.89 1.46 3.89 5.26-1.4 5.13-3.89 5.13-3.89-1.34-3.89-5.13Zm5.62 0c0-2.61-.5-3.43-1.72-3.43s-1.75.82-1.75 3.43c0 2.46.53 3.31 1.75 3.31s1.72-.85 1.72-3.31Zm-5.36-18.36c0-3.8 1.4-5.26 3.89-5.26s3.89 1.46 3.89 5.26-1.4 5.13-3.89 5.13-3.89-1.34-3.89-5.13Zm5.62 0c0-2.61-.5-3.43-1.72-3.43s-1.75.82-1.75 3.43c0 2.46.53 3.31 1.75 3.31s1.72-.85 1.72-3.31Zm-10.25 13.23-2.17 1.4-.96-1.56 3.31-2.2h1.91v10.03h-2.1v-7.66Zm-.06-12.42-2.17 1.4-.96-1.56 3.31-2.2h1.91v10.03h-2.1v-7.66Zm-11.67 8.43c0-3.8 1.4-5.26 3.89-5.26s3.89 1.46 3.89 5.26-1.4 5.13-3.89 5.13-3.89-1.34-3.89-5.13Zm5.62 0c0-2.61-.5-3.43-1.72-3.43s-1.75.82-1.75 3.43c0 2.46.53 3.31 1.75 3.31s1.72-.85 1.72-3.31Z"/>
  </g>
</svg>
